# xmcd
#
# Track frame offsets: 
#        150
#        23124
#        38761
#        50434
#        69063
#        85811
#        106036
#        124629
#        140630
#        158725
#        172623
#        191518
#        210721
#        222105
#        246784
#        269753
#        285061
#        302184
#        326115
#
# Disc length: 4599 seconds
#
# Revision: 1
# Processed by: cddbd v1.5.2PL0 Copyright (c) Steve Scherf et al.
# Submitted via: ExactAudioCopy v0.90a11
#
DISCID=0011f513
DTITLE=Александр Новиков - Шансонье
DYEAR=1900
DGENRE=
TTITLE0=Вези меня, извозчик
TTITLE1=Бурлак
TTITLE2=С красавицей в обнимку
TTITLE3=Когда мне было 20 лет
TTITLE4=Уличная красотка
TTITLE5=Шансоньетка
TTITLE6=Воробьи
TTITLE7=Записки
TTITLE8=Красивоглазая
TTITLE9=Катька
TTITLE10=Воровать не наживать
TTITLE11=На прощанье
TTITLE12=Ваня, Ваня...
TTITLE13=Екатеринблюз
TTITLE14=Катилась по асфальту
TTITLE15=Шансонье
TTITLE16=Помнишь, девочка?...
TTITLE17=Улица Восточная
TTITLE18=Город древний
EXTD=
EXTT0=
EXTT1=
EXTT2=
EXTT3=
EXTT4=
EXTT5=
EXTT6=
EXTT7=
EXTT8=
EXTT9=
EXTT10=
EXTT11=
EXTT12=
EXTT13=
EXTT14=
EXTT15=
EXTT16=
EXTT17=
EXTT18=
PLAYORDER=
